<svg width="50" height="50" viewBox="0 0 50 50" fill="none" xmlns="http://www.w3.org/2000/svg">
<g clip-path="url(#clip0_1123_10939)">
<path d="M25 4.50434C31.6757 4.50434 32.4657 4.53015 35.1024 4.65022C37.5397 4.76137 38.8635 5.16824 39.7448 5.51062C40.9118 5.96413 41.7444 6.50597 42.6197 7.38026C43.495 8.25553 44.0368 9.08814 44.4893 10.2552C44.8317 11.1364 45.2386 12.4602 45.3497 14.8975C45.4698 17.5333 45.4956 18.3242 45.4956 24.9999C45.4956 31.6757 45.4698 32.4656 45.3497 35.1023C45.2386 37.5396 44.8317 38.8635 44.4893 39.7447C44.0358 40.9117 43.494 41.7443 42.6197 42.6196C41.7444 43.4949 40.9118 44.0367 39.7448 44.4892C38.8635 44.8316 37.5397 45.2385 35.1024 45.3496C32.4667 45.4697 31.6757 45.4955 25 45.4955C18.3243 45.4955 17.5333 45.4697 14.8976 45.3496C12.4603 45.2385 11.1365 44.8316 10.2552 44.4892C9.0882 44.0357 8.2556 43.4939 7.38032 42.6196C6.50504 41.7443 5.9632 40.9117 5.51068 39.7447C5.16831 38.8635 4.76143 37.5396 4.65029 35.1023C4.53021 32.4666 4.50441 31.6757 4.50441 24.9999C4.50441 18.3242 4.53021 17.5343 4.65029 14.8975C4.76143 12.4602 5.16831 11.1364 5.51068 10.2552C5.96419 9.08814 6.50603 8.25553 7.38032 7.38026C8.25461 6.50498 9.0882 5.96314 10.2552 5.51062C11.1365 5.16824 12.4603 4.76137 14.8976 4.65022C17.5333 4.53015 18.3243 4.50434 25 4.50434ZM25 -6.04782e-05C18.2101 -6.04782e-05 17.3587 0.0287185 14.6922 0.150781C12.0316 0.271851 10.2136 0.694604 8.62377 1.31286C6.9794 1.95195 5.58511 2.80639 4.19578 4.19671C2.80545 5.58703 1.95102 6.98033 1.31192 8.6247C0.694665 10.2145 0.271912 12.0315 0.150842 14.6921C0.028779 17.3586 0 18.2101 0 24.9999C0 31.7898 0.028779 32.6412 0.150842 35.3078C0.271912 37.9683 0.694665 39.7864 1.31292 41.3762C1.95201 43.0205 2.80645 44.4148 4.19677 45.8041C5.58709 47.1945 6.98039 48.0489 8.62476 48.688C10.2146 49.3063 12.0326 49.729 14.6932 49.8501C17.3597 49.9721 18.2111 50.0009 25.001 50.0009C31.7908 50.0009 32.6423 49.9721 35.3088 49.8501C37.9694 49.729 39.7874 49.3063 41.3772 48.688C43.0216 48.0489 44.4159 47.1945 45.8052 45.8041C47.1955 44.4138 48.05 43.0205 48.6891 41.3762C49.3073 39.7864 49.7301 37.9683 49.8511 35.3078C49.9732 32.6412 50.002 31.7898 50.002 24.9999C50.002 18.2101 49.9732 17.3586 49.8511 14.6921C49.7301 12.0315 49.3073 10.2135 48.6891 8.62371C48.05 6.97934 47.1955 5.58504 45.8052 4.19571C44.4149 2.80539 43.0216 1.95096 41.3772 1.31186C39.7874 0.693612 37.9694 0.270859 35.3088 0.149789C32.6423 0.0277261 31.7908 -0.00105286 25.001 -0.00105286L25 -6.04782e-05Z" fill="white"/>
<path d="M25 12.1626C17.9095 12.1626 12.1626 17.9104 12.1626 25C12.1626 32.0896 17.9105 37.8374 25 37.8374C32.0896 37.8374 37.8374 32.0896 37.8374 25C37.8374 17.9104 32.0896 12.1626 25 12.1626ZM25 33.334C20.3974 33.334 16.667 29.6027 16.667 25.001C16.667 20.3993 20.3983 16.668 25 16.668C29.6017 16.668 33.333 20.3993 33.333 25.001C33.333 29.6027 29.6017 33.334 25 33.334Z" fill="white"/>
<path d="M38.3455 14.6545C40.0023 14.6545 41.3454 13.3113 41.3454 11.6545C41.3454 9.99766 40.0023 8.65453 38.3455 8.65453C36.6886 8.65453 35.3455 9.99766 35.3455 11.6545C35.3455 13.3113 36.6886 14.6545 38.3455 14.6545Z" fill="white"/>
</g>
<defs>
<clipPath id="clip0_1123_10939">
<rect width="50" height="50" fill="white"/>
</clipPath>
</defs>
</svg>
