<svg xmlns="http://www.w3.org/2000/svg" viewBox="0 0 297.13 59.6">
  <defs>
    <style>.cls-1{fill:#ff8300;}.cls-2{fill:#fff;}.cls-3{fill:#503629;}</style>
  </defs>
  <g id="レイヤー_2" data-name="レイヤー 2">
    <g id="レイヤー_1-2" data-name="レイヤー 1">
      <rect class="cls-1" x="237.53" width="59.6" height="59.6"/>
      <path class="cls-2" d="M246,10.52H244.8v2.86h-2.4V4.56h3.79c2.07,0,3.44.79,3.44,2.92S248.15,10.52,246,10.52Zm.1-4H244.8v2h1.29c.79,0,1.11-.34,1.11-1S246.91,6.55,246.13,6.55Z"/>
      <path class="cls-2" d="M264.41,10.72h-3.88a1,1,0,0,0,1.12,1.06,3.52,3.52,0,0,0,1.71-.46l.87,1.44a5.09,5.09,0,0,1-2.69.76c-2,0-3.08-1.41-3.08-3.44,0-2.28,1.27-3.45,3-3.45s2.95,1.19,2.95,3.65A2.69,2.69,0,0,1,264.41,10.72Zm-3-2.41c-.51,0-.8.34-.88,1h1.89C262.31,8.64,262.08,8.31,261.41,8.31Z"/>
      <path class="cls-2" d="M277.74,13.17a3.82,3.82,0,0,1-1.64.35c-1.2,0-1.75-.61-1.75-2.11V8.54h-1V6.77h1V5.09l2.21-.89V6.77H278V8.54h-1.43v2.4c0,.5.18.65.56.65a1.56,1.56,0,0,0,.91-.35Z"/>
      <path class="cls-2" d="M290.07,13.52a7.62,7.62,0,0,1-2.76-.54l.53-1.72a6.21,6.21,0,0,0,2.27.58c.45,0,.61-.09.61-.3s-.1-.3-.53-.42c-2-.54-2.74-.95-2.74-2.33s.89-2.16,2.7-2.16a6.66,6.66,0,0,1,2.53.48l-.5,1.75a5.27,5.27,0,0,0-2.1-.55c-.44,0-.55.08-.55.28s.06.29.65.45c1.86.51,2.62.93,2.62,2.24C292.8,12.82,291.76,13.52,290.07,13.52Z"/>
      <path class="cls-2" d="M245.74,27.13v-.45a2.73,2.73,0,0,1-1.61.59A2,2,0,0,1,242,25a2.11,2.11,0,0,1,2.39-2.16,3.22,3.22,0,0,1,1.37.28v-.32c0-.58-.32-.78-.94-.78a3.59,3.59,0,0,0-1.83.47l-.6-1.5a6.49,6.49,0,0,1,2.85-.6c1.85,0,2.66.92,2.66,2.45v4.31Zm0-2.7a2.14,2.14,0,0,0-1-.19.62.62,0,0,0-.7.7.65.65,0,0,0,.7.73,1.62,1.62,0,0,0,1-.34Z"/>
      <path class="cls-2" d="M251.62,27.13V18.85l2.27-.91v9.19Z"/>
      <path class="cls-2" d="M264.23,27.13h-1.84l-.28-1.35c-.15-.76-.41-2.22-.49-2.7-.09.48-.34,1.93-.51,2.72l-.27,1.33h-1.79l-1.86-6.62h2.19l.18,1c.16.76.36,2.22.43,2.7.1-.48.35-1.93.52-2.72l.22-1h1.86l.2,1c.17.79.43,2.24.52,2.72.07-.48.3-1.94.44-2.7l.18-1h2.16Z"/>
      <path class="cls-2" d="M272.48,27.13v-.45a2.73,2.73,0,0,1-1.62.59A2,2,0,0,1,268.72,25a2.11,2.11,0,0,1,2.38-2.16,3.23,3.23,0,0,1,1.38.28v-.32c0-.58-.32-.78-.93-.78a3.58,3.58,0,0,0-1.84.47l-.6-1.5a6.45,6.45,0,0,1,2.85-.6c1.85,0,2.66.92,2.66,2.45v4.31Zm0-2.7a2.15,2.15,0,0,0-1-.19.63.63,0,0,0-.7.7.65.65,0,0,0,.7.73,1.65,1.65,0,0,0,1-.34Z"/>
      <path class="cls-2" d="M281.36,29.45h-2.17L280,27.4l-2.52-6.89h2.4l.64,2.35a19.32,19.32,0,0,1,.49,2.36c.1-.62.38-1.8.53-2.38l.61-2.33h2.38Z"/>
      <path class="cls-2" d="M290.07,27.27a7.63,7.63,0,0,1-2.76-.55l.53-1.71a6.42,6.42,0,0,0,2.27.58c.45,0,.61-.1.61-.3s-.1-.31-.53-.42c-2-.54-2.74-1-2.74-2.33s.89-2.17,2.7-2.17a6.86,6.86,0,0,1,2.53.48l-.5,1.75a5.48,5.48,0,0,0-2.1-.56c-.44,0-.55.1-.55.3s.06.29.65.45c1.86.51,2.62.93,2.62,2.24C292.8,26.56,291.76,27.27,290.07,27.27Z"/>
      <path class="cls-2" d="M245,41c-1.93,0-3.09-1.23-3.09-3.47,0-2,1-3.43,3.15-3.43a2.78,2.78,0,0,1,2.54,1.52l-1.56,1.18c-.31-.58-.53-.85-1-.85s-.87.58-.87,1.63.31,1.59.93,1.59c.43,0,.74-.25,1.15-.87l1.43,1.12A2.9,2.9,0,0,1,245,41Z"/>
      <path class="cls-2" d="M258.26,41c-1.82,0-3.14-1.17-3.14-3.45s1.32-3.45,3.14-3.45,3.15,1.14,3.15,3.45S260.09,41,258.26,41Zm0-5c-.59,0-.89.48-.89,1.6s.3,1.62.89,1.62.9-.53.9-1.62S258.85,36,258.26,36Z"/>
      <path class="cls-2" d="M276.78,40.87V37.12c0-.86-.26-1.09-.72-1.09s-.72.23-.72,1.06v3.78h-2.27V37.12c0-.86-.28-1.09-.74-1.09s-.72.23-.72,1.06v3.78h-2.27V34.25h2.27v.45a2.31,2.31,0,0,1,1.57-.59,2.26,2.26,0,0,1,1.83.75,2.8,2.8,0,0,1,1.92-.75c1.49,0,2.13,1,2.13,2.72v4Z"/>
      <path class="cls-2" d="M292.9,38.21H289a1.05,1.05,0,0,0,1.13,1.06,3.47,3.47,0,0,0,1.71-.46l.86,1.44A5.06,5.06,0,0,1,290,41c-2,0-3.09-1.41-3.09-3.44,0-2.28,1.29-3.46,3-3.46s3,1.2,3,3.66C292.91,38,292.91,38.1,292.9,38.21Zm-3-2.42c-.51,0-.8.35-.88,1h1.89C290.8,36.13,290.57,35.79,289.9,35.79Z"/>
      <path class="cls-2" d="M245.31,47.07c-.34,0-.45.12-.45.41V48h1v1.78h-1v4.84h-2.22V49.78H242V48h.71v-.64c0-1.36.58-1.89,1.86-1.89a3.43,3.43,0,0,1,1.44.28v1.46A1.56,1.56,0,0,0,245.31,47.07Z"/>
      <path class="cls-2" d="M254.61,47.52a1.15,1.15,0,0,1-1.29-1.12,1.33,1.33,0,0,1,2.62,0C255.94,47.09,255.4,47.52,254.61,47.52Zm-1.13,7.1V48h2.27v6.62Z"/>
      <path class="cls-2" d="M267.88,50.5a1.4,1.4,0,0,0-1.05-.56c-.56,0-.9.27-.9,1.07v3.61h-2.27V48h2.27v.48a1.94,1.94,0,0,1,1.41-.62,2,2,0,0,1,1.07.28Z"/>
      <path class="cls-2" d="M278.08,54.75a7.83,7.83,0,0,1-2.76-.53l.53-1.72a6.47,6.47,0,0,0,2.28.58c.45,0,.61-.1.61-.3s-.1-.3-.53-.42c-2-.54-2.75-1-2.75-2.33s.89-2.17,2.69-2.17a6.73,6.73,0,0,1,2.55.49l-.5,1.74a5.57,5.57,0,0,0-2.11-.56c-.44,0-.55.1-.55.3s.08.29.66.45c1.86.5,2.62.93,2.62,2.24C280.82,54.05,279.77,54.75,278.08,54.75Z"/>
      <path class="cls-2" d="M292.45,54.4a3.65,3.65,0,0,1-1.64.35c-1.19,0-1.75-.6-1.75-2.1V49.78h-1V48h1V46.32l2.21-.89V48h1.43v1.78h-1.43v2.39c0,.5.19.66.56.66a1.61,1.61,0,0,0,.91-.35Z"/>
      <path class="cls-3" d="M59.77,12.68c0,6.21-5.55,10.78-11.18,12.17A1.94,1.94,0,0,1,48,22.73c3.52-1.47,6.62-3.84,6.62-7.43,0-2.7-2.45-4-4.41-4.25a2.88,2.88,0,0,1-2.53-2.94c0-1.39,1-3.84,4.65-3.84C56.34,4.27,59.77,8.19,59.77,12.68Z"/>
      <path class="cls-3" d="M46.58,56.94c-.83-1.58-1.33-5.82-1.16-9.39a1.67,1.67,0,0,1,2.32-.17c1.5,4.66,4.57,9.06,9,9.06a4.45,4.45,0,0,0,4.65-4.66c0-3.06-2.74-5.06-5.65-6.48-4.32-2.07-8.81-5.15-8.81-10.47-.08-6.47,5.49-10.3,12.38-10.3A18,18,0,0,1,67,26.2c.83,1.74,1.24,4.32,1.24,8.05a1.65,1.65,0,0,1-2.24.42c-1.25-3.82-3.9-7-7.14-7A4.42,4.42,0,0,0,54.22,32c0,2.41,2.41,4.15,5.57,5.65,4.49,2.16,9.22,5,9.22,11.55,0,7.23-6.39,10.39-13,10.39A15.62,15.62,0,0,1,46.58,56.94Z"/>
      <path class="cls-3" d="M6.91,17c0-7.56-.09-8.8-3.58-9.3L.43,7.34C-.16,6.75-.16,5.34.51,5a151.4,151.4,0,0,1,18.36-.75c7.9,0,13.63,1.16,17.37,3.33A14.13,14.13,0,0,1,43.3,20.05c0,12.63-12,16.12-18.61,16.12a17.4,17.4,0,0,1-2.08-.08A1.67,1.67,0,0,1,22.36,34c7.57-1.5,10.31-7,10.31-13.8S28.35,7.59,20.78,7.59c-4.15,0-4.23.24-4.23,3.48V47.38c0,8.81.75,9.06,4.65,9.47l3.08.34a2,2,0,0,1-.17,2.41c-4.9-.17-8.65-.25-12.3-.25s-7.39.08-10.72.25a1.77,1.77,0,0,1-.16-2.41L2.25,57c3.91-.58,4.66-.83,4.66-9.64Z"/>
      <path class="cls-3" d="M75.45,38.26H76l3.16.05,5.43-.21,4,.13,2.06,0a19.86,19.86,0,0,1,4.25.33l.12,3.2q-2.5.21-4,.21c-1,0-1.91-.05-2.88-.12-1.3-.09-2.09-.13-2.36-.13l-1.7,0c-.49,0-1.07,0-1.75,0a36,36,0,0,1-7-.44l-.08-1.18A9.35,9.35,0,0,1,75.45,38.26Z"/>
      <path class="cls-3" d="M104.18,33c0-2.25-.09-2.49-1.49-2.49h-3a1.24,1.24,0,0,1-.25-1.91L103,26.81A2,2,0,0,0,104.18,25v-.91a32.84,32.84,0,0,1,2.16-12.45C109.24,4.56,114.47,0,123.27,0c6.73,0,11.79,3.49,11.79,7.72A4.13,4.13,0,0,1,130.75,12c-2,0-2.66-.74-3.16-1.66-2.75-5.22-5.48-7-7.64-7-5.89,0-7.06,7-7.06,20.83v.67c0,1.49.25,1.82,2.08,1.82h7a65.1,65.1,0,0,0,12.54-1.16,1,1,0,0,1,1.08.67c-.17,2.57-.25,6.55-.25,10V49.48c0,6.14.33,7,3.15,7.46l1.5.25c.58.59.5,2.08-.16,2.41-3.08-.17-5.9-.25-9-.25-2.74,0-5.56.08-8.14.25-.75-.33-.83-1.82-.24-2.41l1-.16c2.82-.5,3.15-1.41,3.15-7.55V37c0-6.22-.08-6.46-4.31-6.46h-7.72c-1.58,0-1.75.17-1.75,2.57V49.48c0,6.14.34,7.13,3.24,7.46l2.08.25c.58.59.49,2.08-.17,2.41q-3.86-.26-9.71-.25c-2.66,0-5.47.08-9,.25a1.63,1.63,0,0,1-.16-2.41l1.83-.25c2.82-.41,3.15-1.32,3.15-7.46Z"/>
      <path class="cls-3" d="M147.84,37.27c0-3.74,0-4.73-2.08-6l-1-.57a2.24,2.24,0,0,1,.08-1.92,59.63,59.63,0,0,0,10.47-4.48,1.16,1.16,0,0,1,1.15.75c-.08,1.57-.16,3-.16,3.73,0,.58.33,1,.82,1,2.58-1.82,5.32-4.31,8.14-4.31s4.56,1.91,4.56,4.07a4.57,4.57,0,0,1-4.65,4.81A4.19,4.19,0,0,1,163,33.7a7.58,7.58,0,0,0-4-1.58c-1.9,0-2.4,1.91-2.4,6V49.48c0,6.14.33,7.05,3.23,7.38l3.24.33c.58.59.5,2.08-.17,2.41-5-.17-7.79-.25-10.87-.25-2.74,0-5.48.08-8.63.25-.67-.33-.75-1.82-.17-2.41l1.5-.25c2.82-.5,3.15-1.32,3.15-7.46Z"/>
      <path class="cls-3" d="M172.33,56.94c-.83-1.58-1.33-5.81-1.17-9.38a1.7,1.7,0,0,1,2.33-.17c1.49,4.65,4.56,9,9,9a4.43,4.43,0,0,0,4.64-4.65c0-3.07-2.74-5.06-5.64-6.47-4.32-2.08-8.8-5.15-8.8-10.46-.08-6.47,5.47-10.3,12.38-10.3a18,18,0,0,1,7.71,1.67c.83,1.74,1.25,4.32,1.25,8.05a1.67,1.67,0,0,1-2.25.41c-1.25-3.81-3.9-7-7.13-7A4.42,4.42,0,0,0,180,32c0,2.4,2.4,4.15,5.56,5.64,4.48,2.16,9.21,5,9.21,11.54,0,7.22-6.39,10.38-13,10.38A15.59,15.59,0,0,1,172.33,56.94Z"/>
      <path class="cls-3" d="M213.09,29.38c-1.5,0-1.59.17-1.59,2.83V45c0,5.23.76,9.87,6.07,9.87a6.32,6.32,0,0,0,4-1.49A1.29,1.29,0,0,1,222.63,55c-1.66,2.32-5.48,4.57-10.54,4.57-7.88,0-9.3-4.57-9.3-10.38V32.37c0-2.9-.17-3-1.49-3h-2.91a1.37,1.37,0,0,1-.25-2.24,26.45,26.45,0,0,0,6.56-3.49,15.54,15.54,0,0,0,4.57-5.14,1.75,1.75,0,0,1,2.32.41v5c0,1.33,0,1.58,1.58,1.58h8.22c.5.25.66.91.66,1.74A2.6,2.6,0,0,1,221,29.38Z"/>
    </g>
  </g>
</svg>